<svg width="135" height="138" viewBox="0 0 135 138" fill="none" xmlns="http://www.w3.org/2000/svg">
<g clip-path="url(#clip0_2475_1249)">
<path d="M133.333 45.2512C132.915 43.5545 132.051 42.2516 130.903 41.5827C130.467 41.3271 129.983 41.1643 129.481 41.1046C128.98 41.0449 128.471 41.0895 127.988 41.2357C126.432 41.6799 124.687 43.0579 125.213 47.1007C125.625 50.2646 125.966 53.4972 126.297 56.6199C126.438 57.9525 126.581 59.2847 126.725 60.6173C126.197 69.4816 125.612 77.4735 123.818 85.4317C121.475 95.8265 116.633 105.625 109.429 114.553C103.586 121.795 96.1194 126.283 86.6021 128.273C78.726 129.862 70.647 130.178 62.6715 129.21C56.188 128.468 48.5867 127.288 41.3649 124.165C33.004 120.549 27.0862 116.278 22.7401 110.725C16.3095 102.485 11.7129 92.9582 9.25973 82.786C7.59898 76.3272 7.15634 69.614 7.95485 62.9925C9.17838 53.2484 12.4902 43.6729 18.3765 32.856C20.4485 29.0382 23.2488 25.6668 26.618 22.9341C34.8183 16.2703 42.94 11.6942 51.4464 8.94324C57.4958 6.98657 64.1726 6.37151 71.8656 7.06352C76.978 7.52336 81.9459 9.05349 86.7502 10.5337C87.8267 10.8651 88.9037 11.1965 89.9827 11.5173L90.4795 11.6684C91.3989 11.982 92.3474 12.2014 93.3105 12.3232C93.9494 12.3796 95.2758 12.024 95.5282 11.2655C95.6477 10.8319 95.6717 10.3774 95.5975 9.93367C95.5237 9.48996 95.3536 9.06785 95.1001 8.69696C94.4487 7.89248 93.6066 7.26478 92.6511 6.87123C89.4392 5.53404 86.5349 4.34435 83.5052 3.33251C77.7378 1.39896 71.6929 0.42914 65.6124 0.461732C55.8598 0.543453 46.2903 3.12682 37.813 7.96617C34.6824 9.71937 31.9156 11.3486 29.3547 12.9472C21.8157 17.6528 16.3374 23.1643 12.6066 29.7964C8.12899 37.754 5.03593 45.0877 3.14944 52.2145C0.913154 60.6642 0.109732 67.2524 0.543841 73.5747C1.29663 84.5185 4.7714 95.3541 11.1706 106.701C13.476 110.891 16.2852 114.781 19.5351 118.285C26.3313 125.487 34.9423 130.582 45.8542 133.859C54.2463 136.388 62.9611 137.675 71.7235 137.677C75.495 137.676 79.263 137.441 83.0058 136.972C97.6932 135.137 109.002 128.755 117.573 117.459C124.432 108.42 128.976 99.3747 131.463 89.8084C134.298 78.9013 135.351 67.0223 134.683 53.4917C134.503 50.707 134.05 47.947 133.333 45.2512Z" fill="black"/>
<path d="M77.9522 26.1156C78.5544 26.1786 79.1561 26.2426 79.7584 26.299C80.2989 26.3493 81.7407 26.4848 82.2225 25.0781C82.4272 24.5482 82.4197 23.9596 82.2019 23.4351C81.9846 22.9106 81.5731 22.4907 81.0541 22.2631C80.1021 21.7799 79.0934 21.4175 78.0515 21.1844C73.2864 20.1776 68.3908 19.9518 63.5538 20.516C54.5309 21.5802 46.955 23.9243 40.3927 27.6831C31.6744 32.6762 26.2809 39.0509 23.9041 47.1742C23.5403 48.4198 23.051 49.6718 22.6184 50.7764C18.8943 60.0386 17.966 70.1957 19.949 79.9836C21.3502 86.9017 23.0792 92.4867 26.9621 97.2588C35.8776 108.215 46.0165 114.397 57.9581 116.158C60.5326 116.537 63.1779 116.664 65.7309 116.787C66.8942 116.843 68.0967 116.901 69.2735 116.982H69.3081H69.3207C78.5469 116.79 87.6044 114.462 95.7857 110.179C97.7475 109.198 99.5552 107.933 101.15 106.424C106.191 101.452 109.369 96.7375 111.147 91.5892C111.506 90.5512 111.98 89.5202 112.438 88.523C112.579 88.2173 112.72 87.9115 112.857 87.6048C116.966 78.4691 116.93 68.4812 112.745 57.0706C112.395 56.1111 111.848 55.2368 111.139 54.5045C110.683 53.9933 110.099 53.6145 109.447 53.408C108.795 53.202 108.1 53.1758 107.435 53.3325C106.802 53.5359 106.235 53.9102 105.798 54.4138C105.361 54.9175 105.069 55.5314 104.955 56.1897C104.675 57.3874 104.882 58.7205 105.066 59.897L105.107 60.1614C105.321 61.5495 105.579 62.9507 105.829 64.3065C106.253 66.6077 106.692 68.9879 106.916 71.3379C107.328 75.2196 106.81 79.1435 105.405 82.7839C104.155 86.0621 102.74 89.2744 101.165 92.4086C98.561 97.4451 95.7099 100.745 92.1909 102.784C89.4347 104.382 86.3232 105.519 83.3135 106.618L82.1276 107.052C76.8079 109.012 71.0842 109.016 65.5161 109.019H65.4734C56.9107 109.019 50.3896 107.121 44.9548 103.047C44.0695 102.383 43.1385 101.761 42.2381 101.16C41.2415 100.494 40.211 99.8062 39.2544 99.0679C34.0692 95.0644 30.6813 90.5562 28.8977 85.28C26.798 79.075 24.6004 70.8439 26.2495 62.1957C26.7918 59.6044 27.4658 57.0434 28.269 54.5216C28.7573 52.8953 29.2614 51.2136 29.687 49.5383C31.4265 42.6952 35.6426 37.3949 42.5773 33.335C51.9318 27.8578 62.39 25.3133 73.6337 25.7555C75.07 25.8124 76.5339 25.9666 77.9522 26.1156Z" fill="black"/>
<path d="M53.6321 50.7108C55.9045 49.4019 58.315 48.3515 60.8192 47.5793C63.4023 46.8077 66.1204 46.2859 68.7486 45.7813C69.4261 45.6508 70.1036 45.5209 70.7791 45.3864C71.6398 45.2157 72.9406 44.9568 72.9672 43.4302C72.9878 42.2325 72.1954 41.4292 70.8489 41.2806C70.1413 41.2011 69.4291 41.173 68.7175 41.1965C63.9388 41.3768 59.132 42.4914 53.592 44.706C48.7664 46.558 44.8353 50.2018 42.613 54.8826C38.6091 63.1268 38.3721 71.9447 41.9102 81.091C42.9064 83.6651 44.405 86.9514 47.1758 89.5402C53.3837 95.3392 60.9362 98.2785 69.6254 98.2785C70.0374 98.2785 70.4504 98.2901 70.8639 98.3032C71.2444 98.3158 71.6308 98.3289 72.0182 98.3289C72.4814 98.3324 72.9447 98.3072 73.4049 98.2533C79.4598 97.5029 84.2003 95.4656 87.898 92.0252C94.8402 85.5659 97.9799 76.9157 97.2326 66.3144C97.1267 64.8201 96.394 63.3429 95.7481 62.0404C95.1644 60.8649 93.8295 59.9674 92.4981 60.6247C91.5967 61.1777 90.9378 62.0525 90.6542 63.0734C90.4811 63.7851 90.4214 64.5199 90.4786 65.2497C90.4876 65.6058 90.4962 65.9422 90.4786 66.2711C90.4339 67.081 90.4139 67.9044 90.3943 68.7017C90.3978 70.5335 90.2558 72.3627 89.9702 74.1713C88.1881 83.6767 82.8498 89.2582 74.1045 90.7615C67.9431 91.8192 61.8807 90.6679 56.0877 87.3367C53.854 86.0524 51.583 84.5344 50.1036 82.1406C45.7796 75.1439 44.7111 67.6949 46.9273 60.0001C48.1784 55.6456 50.4368 52.5194 53.6321 50.7108Z" fill="black"/>
<path d="M112.517 18.386C112.59 17.9951 112.67 17.6044 112.749 17.214C113.024 15.9935 113.22 14.7567 113.338 13.5112C113.502 11.3077 112.485 10.525 110.79 9.97604C110.138 9.74502 109.436 9.69228 108.756 9.82308C108.076 9.95388 107.444 10.2635 106.922 10.7204C102.123 14.7431 97.2837 18.8197 92.5381 22.8363C90.8318 24.2823 90.2296 26.1332 90.6562 28.6605C90.9292 30.2853 91.0988 31.963 91.2624 33.5857C91.3874 34.8192 91.5164 36.0938 91.69 37.3459C91.826 38.3295 91.5495 38.9963 90.6702 39.8057L90.2773 40.1669C87.8503 42.3995 85.3415 44.7078 82.9837 47.0951C78.7857 51.3457 74.5525 55.7002 70.4548 59.9112C68.5096 61.9122 66.5624 63.9122 64.6137 65.9112C63.2205 67.3391 63.5136 68.4385 64.0055 69.1094C64.1871 69.3794 64.4315 69.6005 64.7176 69.7541C65.0036 69.9072 65.3228 69.9878 65.647 69.9888C66.31 69.9565 66.9468 69.7198 67.4703 69.3104C68.3827 68.6309 69.2469 67.8885 70.0569 67.0887C74.7498 62.6435 79.4396 58.1943 84.1265 53.742L91.7447 46.5108C92.512 45.784 93.0596 45.4331 94.0332 45.4734C98.1896 45.5983 102.414 45.5952 106.5 45.5907C107.66 45.5887 108.82 45.5887 109.98 45.5907H109.99C110.705 45.6093 111.415 45.4656 112.066 45.1702C112.718 44.8748 113.295 44.4354 113.754 43.8849C117.066 40.0909 120.494 36.2852 123.705 32.7375C125.282 30.9954 126.646 29.1797 126.035 26.1322C125.483 23.3923 125.113 22.18 122.042 22.1629C120.438 22.1603 118.812 22.2454 117.241 22.3351C116.351 22.3855 115.461 22.4359 114.571 22.4692C113.852 22.4954 113.139 22.4897 112.312 22.4827L111.684 22.4776C111.749 22.1623 111.813 21.8532 111.877 21.55C112.105 20.451 112.32 19.42 112.517 18.386ZM119.936 28.459L120.06 28.468L111.462 39.3867H97.0343C96.9926 39.2406 96.947 39.0921 96.9013 38.9415C96.691 38.3451 96.5565 37.7246 96.4998 37.0946C96.4361 35.4275 96.4391 33.7246 96.4416 32.0782C96.4416 31.0905 96.4451 30.103 96.4331 29.1163C96.421 28.1423 96.5625 27.3641 97.2892 26.7346C100.006 24.3805 102.714 22.0138 105.587 19.5016L108.014 17.3823C107.989 17.7585 107.969 18.032 107.928 18.2954C107.812 19.0423 107.682 19.7872 107.552 20.5321C107.306 21.9499 107.05 23.416 106.896 24.8771C106.759 26.1655 106.939 27.0427 107.461 27.6345C107.984 28.2263 108.809 28.5078 110.075 28.531C111.924 28.5663 113.802 28.5134 115.617 28.4635C116.601 28.4368 117.585 28.4101 118.569 28.396C118.973 28.395 119.374 28.4218 119.935 28.461L119.936 28.459Z" fill="black"/>
</g>
<defs>
<clipPath id="clip0_2475_1249">
<rect width="135" height="138" fill="white"/>
</clipPath>
</defs>
</svg>
