<svg width="145" height="148" viewBox="0 0 145 148" fill="none" xmlns="http://www.w3.org/2000/svg">
<g clip-path="url(#clip0_2475_1255)">
<path d="M71.7684 109.514C56.1772 120.9 40.9307 132.018 25.7135 143.175C24.5962 143.995 23.7438 145.168 22.6667 146.054C20.1745 148.1 17.822 147.279 17.2563 144.088C17.0386 142.817 17.0994 141.513 17.4344 140.267C19.0216 134.559 20.537 128.816 22.4673 123.221C26.124 112.625 30.0449 102.12 33.8602 91.5799C34.2576 90.4816 34.692 89.3976 35.0331 88.5044C24.3355 78.7163 14.208 68.7256 4.32407 58.4879C2.99475 57.0857 1.8697 55.5021 0.98205 53.7843C-0.148174 51.6266 0.637575 50.179 3.01584 49.8635C5.36477 49.5403 7.733 49.379 10.1039 49.3807C19.1567 49.4339 28.2084 49.6351 37.2611 49.6858C40.8085 49.7059 44.357 49.4748 48.0934 49.3522C49.8172 45.0394 51.5074 40.8597 53.1613 36.6657C57.513 25.6306 61.857 14.5918 66.193 3.54938C66.3432 3.14478 66.5187 2.74997 66.718 2.3673C67.9732 0.0700539 70.3262 -0.14546 71.8966 1.98886C72.5562 2.9738 73.0928 4.03615 73.4942 5.15206C76.9043 13.5478 80.1519 22.0124 83.7219 30.3381C85.7998 35.1825 88.3826 39.8106 90.7951 44.655C91.827 44.655 92.6724 44.6719 93.521 44.655C104.078 44.4129 114.633 44.1078 125.191 43.9449C130.245 43.867 135.303 44.0904 140.359 44.1053C142.011 44.1105 143.383 44.5246 144.114 46.0831C144.471 46.8258 144.571 47.667 144.397 48.4729C144.222 49.2789 143.786 50.0034 143.154 50.5316C139.83 53.7648 136.512 57.0118 133.045 60.0867C123.843 68.2485 114.561 76.3197 105.318 84.4363C104.443 85.2049 103.624 86.0377 102.808 86.8128C102.899 87.3133 103.03 87.8059 103.197 88.2863C110.232 103.442 114.595 119.431 117.921 135.742C118.489 138.044 118.931 140.375 119.243 142.724C119.583 146.481 118.321 147.008 114.719 147.588C109.677 148.405 106.612 145.742 103.408 142.804C95.0578 135.144 86.7028 127.484 79.4062 118.763C76.9179 115.789 74.4691 112.786 71.7684 109.514ZM28.5275 132.464L28.9883 132.891C29.5949 132.462 30.2184 132.056 30.8055 131.6C43.234 121.934 55.6642 112.268 68.0962 102.602C71.1839 100.208 72.9006 100.235 75.8271 102.788C77.7892 104.479 79.6392 106.297 81.3643 108.23C89.3827 117.322 98.4141 125.363 107.309 133.546C107.67 133.878 108.092 134.142 108.802 134.676C108.694 133.87 108.682 133.456 108.58 133.064C104.934 118.974 101.236 104.896 95.9925 91.293C94.5982 87.6755 94.9684 84.8557 98.0827 82.0755C108.385 72.8787 118.473 63.4388 128.636 54.0908C129.472 53.3229 130.301 52.549 131.618 51.3293C129.79 51.3293 128.72 51.317 127.65 51.3293C116.009 51.4884 104.362 51.4851 92.73 51.8902C87.7191 52.0648 84.5737 49.9427 82.4072 45.7455C82.3573 45.6494 82.312 45.5508 82.2699 45.4522C80.1985 40.5941 77.9976 35.7873 76.0984 30.8631C74.1195 25.735 72.4429 20.4857 70.6071 15.2986C70.2582 14.3126 69.7844 13.3712 69.1319 11.862C67.766 15.2667 66.494 18.0794 65.4972 20.9874C62.3493 30.1738 59.2287 39.3711 56.2465 48.6127C54.3233 54.5723 49.9629 57.1 44.2587 56.706C35.7684 56.1218 27.26 55.7823 18.7575 55.3941C16.4271 55.2877 14.0916 55.378 11.3482 55.378C14.2612 58.0147 16.9798 60.4314 19.6448 62.902C26.7654 69.4955 33.8977 76.0789 40.9418 82.7532C42.0713 83.9073 42.9979 85.2445 43.6825 86.7083C44.6425 88.6109 44.3188 90.1421 42.5173 91.1742C41.1993 91.9298 40.8019 92.9918 40.3993 94.2102C38.2334 100.766 35.9834 107.291 33.934 113.879C32.0218 120.043 30.3212 126.268 28.5268 132.464H28.5275Z" fill="black"/>
</g>
<defs>
<clipPath id="clip0_2475_1255">
<rect width="145" height="148" fill="white"/>
</clipPath>
</defs>
</svg>
