<svg width="124" height="132" viewBox="0 0 124 132" fill="none" xmlns="http://www.w3.org/2000/svg">
<path d="M91.1555 90.4832C89.0552 90.7241 88.154 92.3991 87.1046 93.7991C82.8344 99.4941 78.4691 101.019 71.5986 99.1207C66.3105 97.6583 64.854 98.3468 62.2956 103.314C61.3886 105.243 60.309 107.086 59.0703 108.821C58.1737 109.971 57.0295 110.903 55.7232 111.55C54.4169 112.198 52.9821 112.542 51.5244 112.559C50.0666 112.576 48.6234 112.265 47.3024 111.648C45.9814 111.032 44.8163 110.125 43.8931 108.997C43.6112 108.648 43.3098 108.315 42.9901 107.999C41.2947 106.417 39.5537 106.744 38.9341 109.012C38.409 110.935 38.3902 112.998 38.1592 114.999C37.812 118.006 37.5221 121.021 37.1093 124.018C36.9486 125.015 36.6386 125.983 36.1901 126.888C33.9133 131.689 28.3059 132.239 25.483 127.722C24.0994 125.507 23.4819 122.779 22.7199 120.223C22.1134 118.189 21.9806 116.014 21.3354 113.999C20.5412 111.52 19.362 111.149 16.9663 112.221C15.5737 112.939 14.1356 113.565 12.6614 114.096C7.45725 115.64 2.62654 112.849 1.16356 107.632C0.477035 105.184 0.131191 103.069 2.39227 100.963C3.88019 99.5761 4.62381 97.3702 5.63326 95.4931C16.2003 75.8029 27.8407 56.7555 40.2724 38.1949C46.9552 28.2186 53.7567 18.3164 60.5432 8.40767C61.81 6.55747 63.3211 4.87585 64.6075 3.03744C66.2133 0.740262 68.3674 0.00908881 71.0512 0.385171C76.5139 1.15112 81.3629 3.495 85.8759 6.46559C103.946 18.3591 115.749 34.6691 120.311 55.9706C121.271 60.4481 122.645 64.8579 121.975 69.5881C121.751 71.1751 122.528 72.8816 122.67 74.5487C122.996 77.2449 122.471 79.9759 121.169 82.3591C119.881 84.5906 118.162 85.8134 115.382 85.4347C112.112 84.9897 111.444 85.543 110.899 88.8076C110.44 91.5721 110.197 94.3727 109.783 97.1431C109.594 98.3619 109.308 99.5643 108.93 100.738C107.743 104.483 105.689 106.131 102.192 106.242C98.326 106.365 95.3094 104.47 94.1188 100.902C93.5938 99.3267 93.5524 97.5993 93.179 95.9669C92.7405 94.0675 93.0595 91.8622 91.1555 90.4832ZM82.0258 52.6232C81.9786 52.5215 81.9608 52.3711 81.8808 52.3251C81.4181 52.0245 80.9297 51.765 80.4217 51.5494C76.0374 49.9676 73.4836 46.7969 72.356 42.3607C71.9701 40.8439 71.6202 39.3146 71.1562 37.822C70.6548 35.8765 69.9899 33.9764 69.1701 32.1421C67.2267 28.3261 63.1315 26.7811 57.8493 27.4368C54.0622 27.9067 53.2753 30.9764 51.6141 33.7698C57.1037 34.4813 59.5174 37.8115 60.1048 42.4302C60.5332 45.4484 60.2355 48.5253 59.237 51.4055C58.2384 54.2858 56.5678 56.8862 54.3632 58.9915C49.2831 64.0643 42.2778 64.7228 36.1036 61.0578C35.4545 60.6725 34.8351 60.236 33.9058 59.6309L9.01336 99.7658L9.44792 100.399L26.6656 94.8768C26.7391 94.1108 26.7884 93.782 26.797 93.4519C26.8101 93.0036 26.753 92.5501 26.797 92.1057C27.5373 84.3951 30.4546 78.0909 37.8233 74.4666C45.3344 70.7728 56.9603 71.6595 61.5829 81.4737C61.8135 81.8846 62.071 82.279 62.3539 82.6551C63.7034 82.1957 64.973 81.7881 66.2265 81.3332C67.5503 80.8535 68.8577 80.329 70.1376 79.8368C66.8808 69.424 71.7062 58.6267 82.0258 52.6232ZM29.7819 125.82L30.7241 125.603C32.3216 123.174 32.3098 120.345 32.5828 117.589C32.8913 114.468 32.9228 111.294 33.5423 108.237C34.4691 103.664 38.3335 101.224 42.5151 102.324C44.3207 102.798 46.1423 103.292 47.4543 104.917C48.6547 106.404 50.4268 107.295 52.2153 106.255C53.4277 105.479 54.3851 104.363 54.9676 103.047C56.6015 99.4567 59.2882 96.448 62.6712 94.4193C63.8679 93.5844 65.2373 93.0312 66.678 92.7995C68.118 92.5678 69.5928 92.6643 70.9908 93.081C72.0679 93.3908 73.1226 93.8142 74.2193 94.0137C77.0698 94.5322 79.5606 94.0334 81.275 91.3706C81.9727 90.352 82.7445 89.3865 83.5853 88.4827C86.0098 85.7294 88.8727 83.7112 92.7169 84.8433C96.4036 85.9289 97.7307 89.0577 98.343 92.5442C98.6535 94.3104 98.8766 96.093 99.2002 97.8572C99.4299 99.1102 99.827 100.37 101.391 100.421C102.955 100.471 102.914 99.0386 103.264 98.0397C103.43 97.5034 103.538 96.9508 103.585 96.3916C103.913 93.6094 104.211 90.8239 104.537 88.0423C105.303 81.4986 109.621 79.021 114.585 79.7725C114.769 79.8 114.985 79.6163 115.57 79.3688C115.807 77.5711 116.07 75.5726 116.398 73.0831C111.088 74.5428 106.394 75.6428 101.826 77.1228C80.0706 84.164 58.3849 91.4212 36.5978 98.3626C26.8906 101.456 17.0049 103.989 7.19787 106.77C6.52509 106.961 5.83682 107.098 5.04134 107.288C7.3418 110.574 8.5664 110.998 11.6236 109.663C12.6462 109.216 13.5724 108.554 14.5858 108.083C15.5625 107.551 16.6062 107.151 17.689 106.896C21.4997 106.273 24.6355 108.147 25.9679 112.154C26.9169 115.007 27.2774 118.051 28.042 120.973C28.4746 122.626 29.1937 124.206 29.7844 125.82H29.7819ZM104.433 68.8569C104.358 67.856 104.226 66.8603 104.039 65.8745C100.252 51.1884 93.7841 37.8746 83.437 26.6631C78.1712 20.9582 71.5087 17.3943 64.0813 14.9704L57.866 23.9274C59.2121 23.9274 59.8854 23.9786 60.549 23.9196C67.4453 23.3039 72.3383 27.782 74.3079 33.9319C74.9223 35.8478 75.4414 37.7959 75.9586 39.7406C76.9471 43.4548 78.9069 46.214 82.8653 47.2169C83.9397 47.5418 84.9708 47.9969 85.9356 48.5721C90.0837 50.8155 92.625 54.2273 92.8515 59.0002C92.8757 61.6873 92.7635 64.3738 92.5154 67.0494C92.4202 68.7814 92.2693 70.5109 92.1282 72.4517L104.433 68.8569ZM115.83 65.9205C115.738 64.7667 115.714 64.0992 115.628 63.4402C112.971 43.1279 104.247 26.2351 87.4124 14.0679C83.8682 11.5265 80.0883 9.33088 76.124 7.51112C70.8924 5.09254 70.3345 5.46986 67.3337 10.4475C67.2438 10.5965 67.3225 10.8479 67.3225 11.0435C67.5142 11.1725 67.7157 11.2855 67.9257 11.3809C68.5578 11.6086 69.2069 11.7898 69.8357 12.0261C77.3008 14.8286 83.8714 18.9032 89.2114 24.9612C97.9039 34.8573 104.421 46.469 108.34 59.0441C109.181 61.6839 110.023 64.3237 110.915 67.1216L115.83 65.9205ZM56.5187 84.6674C54.9717 79.8158 50.9686 77.6138 45.7494 78.3929C38.3203 79.5014 33.3899 85.0251 33.3853 92.4956L56.5187 84.6674ZM37.2221 54.9407C42.0843 58.7704 46.8355 58.4652 49.9662 54.3028C51.8964 51.7892 52.9268 48.7005 52.8922 45.5315C52.8561 41.7208 51.42 40.2571 47.2024 39.8016L37.2221 54.9407ZM85.9789 74.4929C86.4193 71.3556 86.8368 68.5858 87.1905 65.8076C87.5509 62.9742 88.5223 60.131 87.3454 57.2648C79.7135 58.7514 74.3808 69.7673 77.6677 77.2488L85.9789 74.4929Z" fill="black"/>
</svg>
