<svg width="115" height="160" viewBox="0 0 115 160" fill="none" xmlns="http://www.w3.org/2000/svg">
<g clip-path="url(#clip0_2475_1231)">
<path d="M99.626 93.9723C107.248 84.5791 112.146 73.2919 113.793 61.329C117.03 37.543 107.268 18.7158 86.3056 8.31582C79.8336 5.10476 72.7853 3.37841 66.1218 1.88638C49.0543 -1.93541 33.4268 1.0261 19.6706 10.6853C8.47637 18.5468 2.32591 28.1492 0.868155 40.0425C-0.230869 49.1026 0.364611 58.2869 2.62451 67.1313C7.1853 85.1859 15.3455 99.3758 27.5708 110.51C27.8753 110.788 28.1838 111.064 28.4929 111.34C29.854 112.484 31.108 113.749 32.2401 115.118C33.2764 116.46 34.4702 118.193 34.499 119.685C34.6042 125.287 34.2763 130.807 33.9065 135.935C33.6771 139.109 33.3099 142.334 32.9544 145.453C32.7369 147.359 32.5199 149.265 32.331 151.177C31.9102 155.421 33.3642 157.544 37.3493 158.505C39.7134 159.09 42.1389 159.393 44.5748 159.409H44.7987C52.8696 159.341 61.0686 159.157 69.0027 158.978L74.2953 158.861C79.4324 158.749 81.5024 156.887 81.933 151.99C82.687 143.414 83.049 136.828 83.1046 130.636L83.1124 129.974C83.1569 126.301 83.2065 122.157 79.9904 118.614L85.975 111.103C90.5371 105.375 95.0874 99.6653 99.626 93.9723ZM74.3894 117.569L65.4279 116.895C65.4155 116.822 65.4135 116.749 65.4214 116.676C66.7419 111.62 68.0762 106.569 69.4235 101.522C72.4207 90.2311 75.5192 78.5563 78.3327 67.0129C80.504 58.1071 80.5733 50.2149 78.5425 42.8867C77.5434 39.2809 75.6459 36.6176 73.0538 35.1848C71.8052 34.5334 70.4376 34.1405 69.0328 34.03C67.6279 33.9196 66.2146 34.0937 64.8793 34.542C63.8148 34.8947 62.7894 35.3552 61.8193 35.9159L61.4208 36.1277C60.7935 36.46 60.2114 36.8433 59.5952 37.2446L59.2561 37.4657C59.0868 37.2536 58.9214 37.0421 58.7567 36.832C58.1544 36.0345 57.5114 35.2682 56.83 34.5363C53.2082 30.7698 47.9966 30.403 43.8585 33.6258C41.058 35.8836 38.9353 38.8648 37.7229 42.243C33.4561 53.1406 33.1393 64.5031 36.7814 76.0139C38.6874 82.038 40.7064 88.1349 42.6621 94.0302C43.3991 96.2545 44.1344 98.4796 44.868 100.705C46.4639 105.698 47.3974 110.876 47.645 116.11H40.8091C40.4281 111.198 37.1499 107.868 33.9802 104.642C33.3921 104.046 32.8042 103.448 32.2337 102.839C19.1433 88.8971 11.9598 73.9651 10.274 57.19C9.69309 51.4131 9.26314 45.262 10.0427 39.4213C11.2188 30.6083 16.2702 23.2264 25.4846 16.8524C36.7076 9.08915 49.1885 6.58183 62.5736 9.40004C69.6306 10.8849 76.4869 12.4843 82.7949 15.6992C99.1255 24.0244 106.593 38.5122 104.389 57.5971C102.869 70.7567 96.783 82.3599 84.6551 95.221C81.4711 98.5999 77.9146 102.745 75.6812 107.873C74.5214 110.536 73.3923 113.679 74.3894 117.569ZM74.7971 133.886L74.4234 139.631H40.632V132.867L74.7971 133.886ZM73.751 146.977L73.5557 151.391C63.4459 151.838 51.7908 152.215 40.2843 151.341C40.2614 151.184 40.2381 151.036 40.2191 150.896C40.1361 150.484 40.0937 150.065 40.0928 149.645C40.1379 148.666 40.2334 147.682 40.3334 146.64C40.3569 146.4 40.3802 146.156 40.4032 145.909L73.751 146.977ZM40.0452 121.832L41.0091 121.86C52.6359 122.2 63.6274 122.521 74.8671 123.687L75.0304 126.452C63.5181 127.086 51.9787 127.059 40.4699 126.368L40.0452 121.832ZM48.7454 92.2123C48.322 90.8731 47.896 89.5339 47.4928 88.1908C45.2973 80.9134 43.1862 73.7739 41.4899 66.4386C39.9133 59.625 40.8366 52.4138 44.3859 43.7446C45.1694 42.0089 46.2898 40.4448 47.6829 39.1418C47.9412 38.8346 48.2615 38.5847 48.6232 38.4089C48.9848 38.233 49.3795 38.135 49.7816 38.1212C50.5435 38.1563 51.3333 38.6553 52.1285 39.6036C54.1796 42.0498 54.2237 42.6681 52.5516 45.6151C49.15 51.6119 47.7644 57.3726 48.3166 63.2256C48.4459 65.0669 48.8777 66.8737 49.5947 68.5759C49.883 69.4331 50.402 70.1954 51.0952 70.7794C51.7883 71.3635 52.6293 71.7472 53.5263 71.889C54.4233 72.0308 55.342 71.9248 56.1827 71.5827C57.0234 71.2406 57.7535 70.6754 58.2941 69.9489C59.5059 68.5407 60.4558 66.9284 61.0992 65.1885C63.5348 59.0183 64.0044 52.2516 62.444 45.8066C61.952 43.6954 63.4517 41.9221 66.5609 40.9406C67.8233 40.5419 68.8152 40.5414 69.5071 40.9362C69.8659 41.1861 70.1684 41.5077 70.3951 41.8804C70.6225 42.253 70.7689 42.6687 70.8251 43.1008C71.6092 46.5382 72.5795 50.816 72.0901 54.6586C71.2406 61.3038 69.7946 68.0015 68.3944 74.4783C68.133 75.6965 67.8723 76.9141 67.6109 78.131C66.772 82.0692 65.8552 86.0627 64.9683 89.9241C63.7784 95.1105 62.5506 100.474 61.4856 105.782C61.0355 108.387 60.7846 111.02 60.7349 113.662C60.6865 114.722 60.6374 115.808 60.5642 116.922L52.5991 116.434C53.6831 107.823 51.1754 99.8897 48.7473 92.2123H48.7454ZM55.4958 58.6877L55.9571 55.8619C55.9554 56.8222 55.8002 57.7759 55.4977 58.6877H55.4958Z" fill="black"/>
</g>
<defs>
<clipPath id="clip0_2475_1231">
<rect width="115" height="160" fill="white"/>
</clipPath>
</defs>
</svg>
